<svg preserveAspectRatio="none" width="100%" height="100%" overflow="visible" style="display: block;" viewBox="0 0 24 22" fill="none" xmlns="http://www.w3.org/2000/svg">
<g id="Subtract">
<path d="M24 18C24 20.2091 22.2091 22 20 22H4C1.79086 22 1.61067e-08 20.2091 0 18V11.5C0 10.9477 0.447715 10.5 1 10.5H23C23.5523 10.5 24 10.9477 24 11.5V18Z" fill="#353434"/>
<path d="M18 0C19.1046 0 20 0.895431 20 2V4C22.2091 4 24 5.79086 24 8C24 8.55228 23.5523 9 23 9H1C0.447716 9 0 8.55228 0 8C0 5.79086 1.79086 4 4 4V2C4 0.895431 4.89543 0 6 0C7.10457 0 8 0.895431 8 2V4H16V2C16 0.895431 16.8954 0 18 0Z" fill="#353434"/>
</g>
</svg>
