<svg width="24" height="24" viewBox="0 0 24 24" fill="none" xmlns="http://www.w3.org/2000/svg">
<g id="&#235;&#148;&#148;&#236;&#158;&#144;&#236;&#157;&#184; &#236;&#139;&#156;&#236;&#138;&#164;&#237;&#133;&#156;">
<g id="Icon_GNB">
<g id="Property 1=icon_&#235;&#139;&#164;&#236;&#157;&#180;&#236;&#150;&#180;&#235;&#166;&#172;_&#236;&#132;&#160;&#237;&#131;&#157;">
<g id="Subtract">
<path d="M24 19C24 21.2091 22.2091 23 20 23H4C1.79086 23 1.61067e-08 21.2091 0 19V12.5C0 11.9477 0.447715 11.5 1 11.5H23C23.5523 11.5 24 11.9477 24 12.5V19Z" fill="#F689BC"/>
<path d="M18 1C19.1046 1 20 1.89543 20 3V5C22.2091 5 24 6.79086 24 9C24 9.55229 23.5523 10 23 10H1C0.447716 10 0 9.55229 0 9C0 6.79086 1.79086 5 4 5V3C4 1.89543 4.89543 1 6 1C7.10457 1 8 1.89543 8 3V5H16V3C16 1.89543 16.8954 1 18 1Z" fill="#F689BC"/>
</g>
</g>
</g>
</g>
</svg>
