<svg preserveAspectRatio="none" width="100%" height="100%" overflow="visible" style="display: block;" viewBox="0 0 24 19.4087" fill="none" xmlns="http://www.w3.org/2000/svg">
<path id="Rectangle 142" d="M1.31669 0.397252C4.30042 -0.319783 8.13937 -0.0661386 10.8334 1.15819C11.5685 1.49224 12.4315 1.49224 13.1666 1.15819C15.8606 -0.0661386 19.6996 -0.319783 22.6833 0.397252C23.4902 0.591163 24 1.34843 24 2.17831V15.8979C24 17.2987 22.5742 18.3018 21.1844 18.1265C18.4934 17.787 15.427 18.1309 13.1666 19.1582C12.4315 19.4922 11.5685 19.4922 10.8334 19.1582C8.57301 18.1309 5.5066 17.787 2.81561 18.1265C1.42578 18.3018 0 17.2987 0 15.8979V2.17831C0 1.34843 0.50978 0.591163 1.31669 0.397252Z" fill="var(--fill-0, #353434)"/>
</svg>
