<svg width="24" height="24" viewBox="0 0 24 24" fill="none" xmlns="http://www.w3.org/2000/svg">
<g id="&#235;&#148;&#148;&#236;&#158;&#144;&#236;&#157;&#184; &#236;&#139;&#156;&#236;&#138;&#164;&#237;&#133;&#156;">
<g id="Icon_GNB">
<g id="Property 1=icon_&#235;&#167;&#164;&#234;&#177;&#176;&#236;&#167;&#132;_&#236;&#132;&#160;&#237;&#131;&#157;">
<path id="Rectangle 142" d="M1.31669 2.59726C4.30042 1.88022 8.13937 2.13387 10.8334 3.3582C11.5685 3.69225 12.4315 3.69225 13.1666 3.3582C15.8606 2.13387 19.6996 1.88022 22.6833 2.59726C23.4902 2.79117 24 3.54843 24 4.37831V18.0979C24 19.4987 22.5742 20.5018 21.1844 20.3265C18.4934 19.987 15.427 20.3309 13.1666 21.3582C12.4315 21.6922 11.5685 21.6922 10.8334 21.3582C8.57301 20.3309 5.5066 19.987 2.81561 20.3265C1.42578 20.5018 0 19.4987 0 18.0979V4.37831C0 3.54843 0.50978 2.79117 1.31669 2.59726Z" fill="#F689BC"/>
</g>
</g>
</g>
</svg>
