<svg width="12" height="12" viewBox="0 0 12 12" fill="none" xmlns="http://www.w3.org/2000/svg">
<g id="&#235;&#148;&#148;&#236;&#158;&#144;&#236;&#157;&#184; &#236;&#139;&#156;&#236;&#138;&#164;&#237;&#133;&#156;">
<g id="icon_calendar_s" clip-path="url(#clip0_50_10)">
<g id="Vector">
<path fill-rule="evenodd" clip-rule="evenodd" d="M9.5 6.5C10.8807 6.5 12 7.61929 12 9C12 10.3807 10.8807 11.5 9.5 11.5C8.11929 11.5 7 10.3807 7 9C7 7.61929 8.11929 6.5 9.5 6.5ZM9.49707 7.375C9.28996 7.375 9.12207 7.54289 9.12207 7.75V8.62793H8.25C8.04296 8.62793 7.87511 8.79591 7.875 9.00293C7.875 9.21004 8.04289 9.37793 8.25 9.37793H9.12207V10.25C9.12207 10.4571 9.28996 10.625 9.49707 10.625C9.70412 10.6249 9.87207 10.4571 9.87207 10.25V9.37793H10.75C10.9571 9.37793 11.125 9.21004 11.125 9.00293C11.1249 8.79591 10.957 8.62793 10.75 8.62793H9.87207V7.75C9.87207 7.54293 9.70412 7.37507 9.49707 7.375Z" fill="#585657"/>
<path d="M9.5 4.79541C9.77613 4.79541 9.99998 5.01929 10 5.29541V5.78809C9.83702 5.76292 9.67002 5.75 9.5 5.75C7.70507 5.75 6.25 7.20507 6.25 9C6.25 9.17005 6.2634 9.337 6.28857 9.5H1.6665C0.746149 9.49991 7.3327e-05 8.76739 0 7.86377V5.29541C2.37902e-05 5.01929 0.223872 4.79541 0.5 4.79541H9.5Z" fill="#585657"/>
<path d="M7.5 0.5C7.96024 0.5 8.3335 0.86649 8.3335 1.31836V2.13623C9.2539 2.13632 10 2.86926 10 3.77295C9.99988 3.99878 9.81668 4.18164 9.59082 4.18164H0.40918C0.183319 4.18164 0.000119913 3.99878 0 3.77295C0 2.86926 0.746104 2.13632 1.6665 2.13623V1.31836C1.6665 0.86649 2.03976 0.5 2.5 0.5C2.96024 0.5 3.3335 0.86649 3.3335 1.31836V2.13623H6.6665V1.31836C6.6665 0.86649 7.03976 0.5 7.5 0.5Z" fill="#585657"/>
</g>
</g>
</g>
<defs>
<clipPath id="clip0_50_10">
<rect width="12" height="12" fill="white"/>
</clipPath>
</defs>
</svg>
