<svg width="24" height="24" viewBox="0 0 24 24" fill="none" xmlns="http://www.w3.org/2000/svg">
<g id="&#235;&#148;&#148;&#236;&#158;&#144;&#236;&#157;&#184; &#236;&#139;&#156;&#236;&#138;&#164;&#237;&#133;&#156;">
<g id="icon_edit_star">
<path id="Rectangle 144" d="M7.62324 2.49692C7.94768 1.63175 9.17146 1.63175 9.4959 2.49692L9.93635 3.67144C10.5448 5.29398 11.825 6.57423 13.4476 7.18268L14.6221 7.62312C15.4873 7.94756 15.4873 9.17134 14.6221 9.49578L13.4476 9.93623C11.825 10.5447 10.5448 11.8249 9.93635 13.4475L9.4959 14.622C9.17146 15.4872 7.94768 15.4872 7.62324 14.622L7.1828 13.4475C6.57434 11.8249 5.2941 10.5447 3.67156 9.93623L2.49704 9.49578C1.63187 9.17134 1.63187 7.94756 2.49704 7.62312L3.67156 7.18268C5.2941 6.57423 6.57434 5.29398 7.1828 3.67144L7.62324 2.49692Z" fill="#353434"/>
<path id="Rectangle 145" d="M17.0217 14.413C17.3461 13.5478 18.5699 13.5478 18.8943 14.413L18.9674 14.6078C19.373 15.6895 20.2265 16.543 21.3082 16.9486L21.5031 17.0217C22.3682 17.3461 22.3682 18.5699 21.5031 18.8944L21.3082 18.9674C20.2265 19.3731 19.373 20.2265 18.9674 21.3082L18.8943 21.5031C18.5699 22.3682 17.3461 22.3682 17.0217 21.5031L16.9486 21.3082C16.543 20.2265 15.6895 19.3731 14.6078 18.9674L14.4129 18.8944C13.5478 18.5699 13.5478 17.3461 14.4129 17.0217L14.6078 16.9486C15.6895 16.543 16.543 15.6895 16.9486 14.6078L17.0217 14.413Z" fill="#353434"/>
</g>
</g>
</svg>
