<svg width="161" height="46" viewBox="0 0 161 46" fill="none" xmlns="http://www.w3.org/2000/svg">
<path fill-rule="evenodd" clip-rule="evenodd" d="M103.602 10.3871C113.699 10.3871 121.941 18.3277 121.941 28.1935C121.941 28.9452 121.893 29.6862 121.8 30.4138C121.706 31.1478 121.093 31.6559 120.41 31.6559H94.2082C94.1278 31.6559 94.0646 31.6947 94.0278 31.7465C93.9927 31.7957 93.9823 31.8536 94.0047 31.9165C95.4628 36 99.2219 39.0753 103.602 39.0753C106.119 39.0753 108.443 37.9315 110.25 36.2891C110.703 35.878 111.288 35.6129 111.92 35.6129H118.686C119.401 35.613 119.888 36.4232 119.491 37.091C116.317 42.4248 110.383 46 103.602 46C93.5053 46 85.2633 38.0594 85.2633 28.1935C85.2633 18.3277 93.5053 10.3871 103.602 10.3871ZM103.693 17.3118C99.3129 17.3119 95.5537 20.3872 94.0957 24.4706C94.0732 24.5335 94.0836 24.5913 94.1187 24.6406C94.1556 24.6925 94.2189 24.7312 94.2994 24.7312H113.087C113.167 24.7312 113.231 24.6925 113.268 24.6406C113.303 24.5913 113.313 24.5335 113.291 24.4706C111.832 20.3871 108.073 17.3118 103.693 17.3118Z" fill="#8E8C8D"/>
<path fill-rule="evenodd" clip-rule="evenodd" d="M142.661 10.3871C152.758 10.3871 161 18.3277 161 28.1935C161 28.9452 160.952 29.6862 160.859 30.4138C160.765 31.1478 160.152 31.6559 159.47 31.6559H133.267C133.187 31.6559 133.124 31.6947 133.087 31.7465C133.052 31.7957 133.041 31.8536 133.064 31.9165C134.522 36 138.281 39.0753 142.661 39.0753C145.178 39.0753 147.502 37.9315 149.31 36.2891C149.762 35.878 150.348 35.6129 150.979 35.6129H157.745C158.46 35.613 158.948 36.4232 158.55 37.091C155.376 42.4248 149.442 46 142.661 46C132.565 46 124.322 38.0594 124.322 28.1935C124.322 18.3277 132.565 10.3871 142.661 10.3871ZM142.752 17.3118C138.372 17.3119 134.613 20.3872 133.155 24.4706C133.132 24.5335 133.143 24.5913 133.178 24.6406C133.215 24.6925 133.278 24.7312 133.359 24.7312H152.146C152.227 24.7312 152.29 24.6925 152.327 24.6406C152.362 24.5913 152.372 24.5335 152.35 24.4706C150.892 20.3871 147.132 17.3118 142.752 17.3118Z" fill="#8E8C8D"/>
<path fill-rule="evenodd" clip-rule="evenodd" d="M32.8669 0C33.6561 0 34.2959 0.664352 34.2959 1.48387V44.0215C34.2959 44.841 33.6561 45.5054 32.8669 45.5054H27.6272C26.838 45.5054 26.1982 44.841 26.1982 44.0215V42.8547C26.1971 42.8536 26.195 42.8517 26.1915 42.8497C26.1853 42.8463 26.1791 42.845 26.1747 42.8451C26.1728 42.8451 26.1712 42.8454 26.1698 42.8458L26.1626 42.8492C23.5431 44.5333 20.4541 45.5054 17.1479 45.5054C7.67739 45.5054 0 37.5332 0 27.6989C0 17.8647 7.67739 9.89247 17.1479 9.89247C20.4541 9.89247 23.5431 10.8645 26.1626 12.5487L26.1698 12.552C26.1712 12.5524 26.1728 12.5527 26.1747 12.5528C26.1791 12.5528 26.1853 12.5516 26.1915 12.5482C26.1952 12.5461 26.1972 12.544 26.1982 12.5429V1.48387C26.1982 0.664352 26.838 0 27.6272 0H32.8669ZM19.5296 17.0645C13.1674 17.0645 8.09763 21.8734 8.09763 27.6989C8.09763 33.5244 13.1674 38.3333 19.5296 38.3333C21.8445 38.3333 23.995 37.6934 25.7914 36.5968C26.0252 36.4541 26.1781 36.1864 26.1964 35.8774L26.1982 35.8151V19.5828C26.1982 19.2477 26.0408 18.9532 25.7914 18.801C23.995 17.7045 21.8445 17.0645 19.5296 17.0645Z" fill="#8E8C8D"/>
<path d="M43.8153 10.8817C44.4555 10.8817 45.0177 11.324 45.191 11.964L50.9675 33.2915L56.7439 11.964C56.9172 11.324 57.4794 10.8817 58.1196 10.8817H63.8212C64.4614 10.8817 65.0236 11.324 65.1969 11.964L70.9734 33.2915L76.7498 11.964C76.9231 11.324 77.4853 10.8817 78.1255 10.8817H83.2575C84.2196 10.8817 84.9069 11.8489 84.623 12.8035L75.2085 44.4594C75.0235 45.0812 74.4698 45.5054 73.843 45.5054H68.1226C67.4824 45.5054 66.9202 45.0631 66.7469 44.4231L60.9704 23.0956L55.194 44.4231C55.0206 45.0631 54.4584 45.5054 53.8182 45.5054H48.0978C47.471 45.5054 46.9173 45.0813 46.7323 44.4594L37.3178 12.8035C37.034 11.8489 37.7213 10.8817 38.6833 10.8817H43.8153Z" fill="#8E8C8D"/>
</svg>
